<?xml version="1.0" encoding="UTF-8" standalone="no"?>
<!DOCTYPE svg PUBLIC "-//W3C//DTD SVG 1.1//EN" "http://www.w3.org/Graphics/SVG/1.1/DTD/svg11.dtd">
<svg width="100%" height="100%" viewBox="0 0 1648 1935" version="1.1" xmlns="http://www.w3.org/2000/svg" xmlns:xlink="http://www.w3.org/1999/xlink" xml:space="preserve" xmlns:serif="http://www.serif.com/" style="fill-rule:evenodd;clip-rule:evenodd;stroke-linejoin:round;stroke-miterlimit:2;">
    <g transform="matrix(4.16667,0,0,4.16667,1005.85,576.077)">
        <path d="M0,6.99L-2.97,14.012C-3.516,15.3 -5.014,15.907 -6.301,15.362C-7.589,14.817 -8.195,13.32 -7.651,12.032L-4.68,5.011C-4.467,4.508 -4.086,4.149 -3.652,3.881C-2.975,3.464 -2.135,3.328 -1.351,3.661C-0.503,4.019 0.007,4.799 0.131,5.651C0.195,6.094 0.187,6.55 0,6.99M-20.223,1.856C-20.767,3.144 -22.265,3.751 -23.553,3.206C-24.841,2.661 -25.448,1.163 -24.903,-0.123L-23.894,-2.507L-21.932,-7.146C-21.387,-8.433 -19.889,-9.041 -18.603,-8.495C-17.314,-7.95 -16.707,-6.454 -17.252,-5.165L-18.853,-1.384L-20.223,1.856ZM-44.145,5.055C-44.598,6.378 -46.05,7.089 -47.373,6.635C-48.659,6.195 -49.347,4.81 -48.967,3.517C-48.957,3.481 -48.965,3.445 -48.953,3.409L-46.482,-3.804C-46.427,-3.965 -46.317,-4.084 -46.235,-4.226C-45.639,-5.251 -44.417,-5.783 -43.254,-5.385C-42.683,-5.189 -42.256,-4.786 -41.957,-4.308C-41.565,-3.68 -41.417,-2.908 -41.674,-2.157L-42.869,1.331L-44.145,5.055ZM32.663,17.522C31.849,16.65 31.037,15.775 30.193,14.932C11.291,-3.97 -14.826,-15.663 -43.673,-15.663C-55.134,-15.663 -66.153,-13.791 -76.471,-10.381C-76.127,-9.981 -75.759,-9.588 -75.399,-9.193C-74.433,-8.132 -73.413,-7.084 -72.33,-6.05C-72.313,-6.084 -72.316,-6.122 -72.298,-6.156C-71.635,-7.388 -70.088,-7.854 -68.856,-7.192L-62.14,-3.585C-61.672,-3.334 -61.357,-2.935 -61.13,-2.495C-60.759,-1.775 -60.693,-0.909 -61.104,-0.144C-61.577,0.738 -62.508,1.206 -63.449,1.169C-60.939,2.934 -58.262,4.625 -55.415,6.229C-48.671,10.027 -41.039,13.315 -32.744,15.903C-33.533,15.359 -33.993,14.399 -33.824,13.396C-33.591,12.017 -32.274,11.08 -30.896,11.313L-23.378,12.581C-22,12.814 -21.063,14.132 -21.296,15.511C-21.528,16.888 -22.845,17.826 -24.224,17.593L-30.994,16.451C-28.656,17.144 -26.284,17.798 -23.851,18.374C-8.531,21.997 6.284,22.653 18.948,20.812L14.134,20.171C12.748,19.987 11.766,18.702 11.95,17.317C12.135,15.93 13.419,14.949 14.804,15.134L15.584,15.237L22.362,16.138C23.749,16.323 24.73,17.607 24.545,18.994C24.502,19.313 24.389,19.603 24.243,19.87C27.212,19.24 30.01,18.442 32.663,17.522" style="fill:white;fill-rule:nonzero;"/>
    </g>
    <g transform="matrix(4.16667,0,0,4.16667,1147.19,757.482)">
        <path d="M0,3.943C-1.372,4.211 -2.712,3.31 -2.982,1.937L-4.447,-5.545C-4.716,-6.917 -3.814,-8.258 -2.442,-8.526C-1.069,-8.796 0.272,-7.893 0.54,-6.522L2.006,0.961C2.274,2.333 1.372,3.673 0,3.943M-3.451,36.477L-10.07,40.259C-11.285,40.953 -12.843,40.527 -13.537,39.313C-14.23,38.099 -13.805,36.54 -12.591,35.847L-5.971,32.065C-4.757,31.37 -3.199,31.796 -2.505,33.01C-1.811,34.224 -2.236,35.782 -3.451,36.477M-17.463,13.718C-18.508,12.79 -18.605,11.177 -17.677,10.132C-16.748,9.086 -15.135,8.989 -14.089,9.918L-8.389,14.979C-7.342,15.907 -7.246,17.521 -8.174,18.566C-9.103,19.611 -10.716,19.708 -11.761,18.779L-17.463,13.718ZM-25.038,-4.104C-25.045,-2.706 -26.192,-1.568 -27.59,-1.574C-28.989,-1.58 -30.126,-2.728 -30.12,-4.126L-30.087,-11.75C-30.082,-13.149 -28.933,-14.286 -27.534,-14.28C-26.136,-14.274 -24.999,-13.127 -25.005,-11.728L-25.038,-4.104ZM-45.827,-7.641L-53.356,-6.438C-54.737,-6.218 -56.046,-7.166 -56.266,-8.547C-56.487,-9.928 -55.539,-11.236 -54.158,-11.457L-46.629,-12.66C-45.248,-12.88 -43.94,-11.932 -43.719,-10.551C-43.499,-9.171 -44.447,-7.863 -45.827,-7.641M-85.847,-15.545C-87.174,-15.104 -88.619,-15.827 -89.061,-17.153L-91.469,-24.388C-91.91,-25.714 -91.187,-27.159 -89.859,-27.6C-88.533,-28.043 -87.088,-27.319 -86.646,-25.992L-84.239,-18.759C-83.796,-17.432 -84.521,-15.986 -85.847,-15.545M-101.518,-28.415L-108.265,-24.867C-109.503,-24.216 -111.045,-24.695 -111.697,-25.932C-112.348,-27.17 -111.868,-28.713 -110.631,-29.364L-105.045,-32.302L-103.883,-32.912C-102.646,-33.563 -101.102,-33.084 -100.451,-31.847C-100.178,-31.328 -100.145,-30.762 -100.242,-30.224C-100.376,-29.478 -100.799,-28.793 -101.518,-28.415M-108.232,-5.051C-108.537,-3.687 -109.9,-2.821 -111.266,-3.126L-118.707,-4.788C-120.07,-5.094 -120.937,-6.458 -120.632,-7.822C-120.327,-9.187 -118.962,-10.053 -117.598,-9.748L-110.157,-8.085C-108.792,-7.78 -107.927,-6.416 -108.232,-5.051M-124.521,-27.915L-128.035,-32.567L-128.141,-32.707L-129.117,-33.999C-129.17,-34.069 -129.182,-34.155 -129.227,-34.229C-129.89,-35.327 -129.666,-36.769 -128.621,-37.558C-127.68,-38.268 -126.42,-38.182 -125.535,-37.48C-125.371,-37.35 -125.194,-37.237 -125.062,-37.062L-123.768,-35.35L-122.989,-34.319L-120.466,-30.979C-119.624,-29.863 -119.846,-28.263 -120.962,-27.419C-122.077,-26.577 -123.677,-26.8 -124.521,-27.915M-125.912,7.16L-128.883,14.182C-129.427,15.469 -130.925,16.077 -132.213,15.532C-133.5,14.987 -134.108,13.49 -133.563,12.202L-130.593,5.18C-130.047,3.892 -128.551,3.286 -127.263,3.83C-125.975,4.375 -125.368,5.873 -125.912,7.16M-142.685,0.046C-142.958,1.418 -144.303,2.313 -145.675,2.039C-147.045,1.765 -147.942,0.42 -147.667,-0.951L-146.171,-8.428C-145.896,-9.799 -144.552,-10.695 -143.181,-10.419C-141.811,-10.146 -140.914,-8.801 -141.187,-7.43L-142.685,0.046ZM-144.756,31.333C-145.522,32.502 -147.105,32.831 -148.274,32.063L-154.649,27.882C-155.818,27.114 -156.146,25.533 -155.379,24.364C-154.613,23.194 -153.031,22.865 -151.861,23.632L-145.487,27.815C-144.318,28.581 -143.989,30.164 -144.756,31.333M-159.505,8.678C-160.636,9.502 -162.232,9.251 -163.055,8.12L-163.433,7.602L-167.543,1.958C-168.366,0.827 -168.115,-0.769 -166.985,-1.593C-165.855,-2.416 -164.258,-2.165 -163.436,-1.035L-160.875,2.481L-158.947,5.128C-158.125,6.259 -158.375,7.856 -159.505,8.678M-151.794,-23.381L-147.146,-29.425C-146.293,-30.533 -144.69,-30.742 -143.582,-29.889C-142.474,-29.036 -142.265,-27.434 -143.118,-26.326L-147.767,-20.283C-148.619,-19.175 -150.222,-18.966 -151.33,-19.819C-152.438,-20.67 -152.647,-22.273 -151.794,-23.381M-1.261,-26.015C-3.914,-25.096 -6.711,-24.297 -9.681,-23.667C-10.028,-23.036 -10.624,-22.587 -11.326,-22.422C-11.617,-22.354 -11.92,-22.319 -12.232,-22.36L-14.976,-22.725C-27.64,-20.885 -42.455,-21.54 -57.774,-25.163C-60.208,-25.739 -62.58,-26.393 -64.918,-27.086L-65.666,-27.213C-66.041,-27.276 -66.373,-27.431 -66.668,-27.635C-74.962,-30.222 -82.595,-33.51 -89.339,-37.308C-92.186,-38.912 -94.863,-40.603 -97.373,-42.368C-97.746,-42.383 -98.119,-42.457 -98.468,-42.645L-101.803,-44.436L-102.183,-44.641L-105.184,-46.253C-106.356,-46.881 -106.803,-48.306 -106.279,-49.503C-106.267,-49.531 -106.267,-49.56 -106.253,-49.587C-107.337,-50.621 -108.356,-51.669 -109.323,-52.73C-109.683,-53.125 -110.051,-53.518 -110.395,-53.918C-116.538,-51.887 -122.433,-49.316 -128.012,-46.235C-129.922,-45.181 -131.787,-44.056 -133.621,-42.888C-140.08,-38.774 -146.073,-33.995 -151.463,-28.605C-165.865,-14.203 -176.063,4.395 -180.111,25.192C-178.079,24.104 -175.854,23.883 -173.653,24.386L-173.654,24.389C-172.34,24.691 -171.046,25.253 -169.824,26.027C-169.38,26.308 -168.944,26.613 -168.522,26.949C-163.889,30.638 -162.505,37.168 -161.141,43.615C-159.62,50.8 -158.123,57.861 -151.73,57.528C-150.219,57.45 -148.671,56.525 -147.317,54.525C-145.88,52.401 -144.706,49.166 -144.02,44.601C-142.979,37.673 -139.935,32.914 -136.343,30.682C-134.487,29.53 -132.479,29.015 -130.478,29.175C-128.828,29.306 -127.222,29.922 -125.737,30.984C-123.33,22.858 -118.95,15.58 -113.113,9.745C-104.024,0.655 -91.466,-4.969 -77.597,-4.969C-63.728,-4.969 -51.169,0.655 -42.081,9.745C-41.095,10.73 -40.169,11.774 -39.268,12.839C-35.359,9.797 -31.888,9.99 -28.826,12.133C-23.16,16.097 -20.282,27.855 -18.415,35.481C-17.838,37.837 -17.367,39.761 -17.012,40.675C-14.889,46.136 -12.269,49.584 -9.549,51.122C-8.057,51.967 -6.524,52.188 -5.055,51.804C-3.426,51.379 -1.778,50.228 -0.221,48.379C3.665,43.764 6.719,35.235 7.605,23.006C7.676,22.019 7.581,20.801 7.488,19.6L7.487,19.6C7.278,16.937 7.073,14.318 8.273,12.055C9.02,10.649 9.972,9.467 11.032,8.492C11.725,7.856 12.455,7.29 13.233,6.865C14.947,5.933 16.822,5.537 18.685,5.777C18.846,5.798 19.002,5.851 19.162,5.881C14.32,-6.003 7.358,-16.788 -1.261,-26.015" style="fill:rgb(250,213,229);fill-rule:nonzero;"/>
    </g>
    <g transform="matrix(4.16667,0,0,4.16667,1241.15,1288.6)">
        <path d="M0,-93.857C-0.534,-98.768 -0.43,-104.477 -0.37,-107.779C-0.349,-109 -0.307,-109.709 -0.32,-109.766C-0.868,-112.281 -1.717,-113.982 -2.708,-114.996C-3.313,-115.615 -3.958,-115.947 -4.582,-116.027C-5.228,-116.111 -5.92,-115.951 -6.586,-115.588C-7.501,-115.09 -8.344,-114.178 -9.028,-112.999C-5.099,-102.515 -2.936,-91.168 -2.936,-79.312C-2.936,-26.285 -45.924,16.703 -98.952,16.703C-102.394,16.703 -105.792,16.517 -109.14,16.164C-94.824,0.61 -154.53,-47.939 -177.438,-23.999C-188.478,-39.635 -194.966,-58.716 -194.966,-79.312C-194.966,-84.683 -194.504,-89.944 -193.656,-95.075C-193.96,-95.434 -194.28,-95.764 -194.631,-96.044C-195.564,-96.786 -196.536,-97.296 -197.468,-97.508L-197.479,-97.508C-198.375,-97.712 -199.256,-97.636 -200.023,-97.212L-200.027,-97.221C-200.905,-96.735 -201.726,-95.764 -202.404,-94.211C-203.363,-92.018 -203.952,-88.823 -203.952,-84.421C-203.952,-81.205 -204.002,-77.888 -204.312,-74.731C-202.48,-48.867 -191.265,-25.594 -174.012,-8.341C-155.11,10.561 -128.993,22.254 -100.146,22.254C-71.299,22.254 -45.182,10.561 -26.279,-8.341C-7.579,-27.042 4.046,-52.808 4.293,-81.289C2.156,-84.313 0.592,-88.42 0,-93.857" style="fill:rgb(249,204,147);fill-rule:nonzero;"/>
    </g>
    <g transform="matrix(4.16667,0,0,4.16667,466.223,755.331)">
        <path d="M0,8.118L0.378,8.637C1.201,9.767 2.797,10.018 3.928,9.195C5.058,8.372 5.309,6.776 4.486,5.644L2.558,2.997L-0.002,-0.519C-0.825,-1.649 -2.422,-1.9 -3.552,-1.077C-4.682,-0.253 -4.933,1.344 -4.11,2.474L0,8.118Z" style="fill:rgb(110,203,212);fill-rule:nonzero;"/>
    </g>
    <g transform="matrix(4.16667,0,0,4.16667,609.208,628.957)">
        <path d="M0,-3.153L0.976,-1.861L1.082,-1.721L4.596,2.93C5.439,4.046 7.04,4.269 8.155,3.427C9.271,2.583 9.493,0.983 8.651,-0.133L6.127,-3.473L5.349,-4.504L4.055,-6.216C3.923,-6.391 3.746,-6.504 3.582,-6.634C2.696,-7.336 1.437,-7.422 0.496,-6.712C-0.549,-5.923 -0.773,-4.481 -0.11,-3.383C-0.065,-3.309 -0.053,-3.223 0,-3.153" style="fill:rgb(110,203,212);fill-rule:nonzero;"/>
    </g>
    <g transform="matrix(4.16667,0,0,4.16667,776.109,649.173)">
        <path d="M0,8.841C0.441,10.167 1.887,10.89 3.214,10.449C4.54,10.008 5.265,8.562 4.822,7.236L2.415,0.002C1.973,-1.325 0.527,-2.049 -0.799,-1.606C-2.126,-1.164 -2.849,0.28 -2.408,1.607L0,8.841Z" style="fill:rgb(110,203,212);fill-rule:nonzero;"/>
    </g>
    <g transform="matrix(4.16667,0,0,4.16667,1032.23,697.98)">
        <path d="M0,12.707C1.398,12.713 2.545,11.575 2.552,10.176L2.585,2.552C2.591,1.154 1.454,0.007 0.056,0.001C-1.343,-0.006 -2.491,1.132 -2.497,2.531L-2.53,10.155C-2.536,11.553 -1.398,12.7 0,12.707" style="fill:rgb(110,203,212);fill-rule:nonzero;"/>
    </g>
    <g transform="matrix(4.16667,0,0,4.16667,596.305,773.437)">
        <path d="M0,11.703C1.288,12.247 2.786,11.64 3.331,10.353L6.301,3.331C6.846,2.043 6.238,0.545 4.951,0.001C3.663,-0.544 2.166,0.063 1.62,1.351L-1.35,8.372C-1.895,9.661 -1.287,11.158 0,11.703" style="fill:rgb(110,203,212);fill-rule:nonzero;"/>
    </g>
    <g transform="matrix(4.16667,0,0,4.16667,1090.79,895.022)">
        <path d="M0,6.303C0.693,7.518 2.252,7.943 3.467,7.249L10.086,3.468C11.301,2.773 11.726,1.214 11.032,0C10.338,-1.214 8.779,-1.64 7.565,-0.945L0.945,2.837C-0.268,3.531 -0.694,5.089 0,6.303" style="fill:rgb(110,203,212);fill-rule:nonzero;"/>
    </g>
    <g transform="matrix(4.16667,0,0,4.16667,1064.74,642.727)">
        <path d="M0,4.175L4.814,4.816L7.558,5.181C7.87,5.222 8.173,5.187 8.464,5.119C9.166,4.954 9.762,4.505 10.109,3.874C10.255,3.607 10.369,3.317 10.411,2.998C10.596,1.611 9.615,0.327 8.228,0.142L1.45,-0.759L0.67,-0.863C-0.715,-1.047 -1.999,-0.066 -2.184,1.321C-2.368,2.706 -1.386,3.99 0,4.175" style="fill:rgb(110,203,212);fill-rule:nonzero;"/>
    </g>
    <g transform="matrix(4.16667,0,0,4.16667,1203.53,1358.2)">
        <path d="M0,-129.701C-0.058,-129.6 -0.134,-129.534 -0.189,-129.43C-0.61,-128.638 -0.47,-126.843 -0.327,-125.019L-0.327,-125.008C-0.218,-123.606 -0.107,-122.184 -0.208,-120.762C-1.187,-107.26 -4.774,-97.588 -9.378,-92.121C-11.723,-89.336 -14.373,-87.563 -17.144,-86.839C-20.073,-86.073 -23.054,-86.475 -25.89,-88.08C-29.71,-90.24 -33.23,-94.668 -35.86,-101.438C-36.35,-102.7 -36.862,-104.788 -37.488,-107.347C-39.152,-114.149 -41.721,-124.635 -45.616,-127.36C-46.557,-128.019 -47.775,-127.92 -49.328,-126.764C-44.003,-118.791 -40.889,-109.216 -40.889,-98.911C-40.889,-85.041 -46.513,-72.482 -55.602,-63.393C-64.691,-54.305 -77.25,-48.68 -91.118,-48.68C-104.986,-48.68 -117.546,-54.305 -126.635,-63.393C-135.724,-72.482 -141.348,-85.041 -141.348,-98.911C-141.348,-101.503 -141.09,-104.029 -140.711,-106.516C-141.148,-107.188 -141.614,-107.767 -142.113,-108.208C-142.863,-108.87 -143.662,-109.227 -144.446,-109.289C-145.224,-109.351 -146.047,-109.127 -146.843,-108.633C-149.122,-107.217 -151.106,-103.857 -151.877,-98.721C-152.693,-93.287 -154.21,-89.262 -156.115,-86.447C-158.58,-82.806 -161.713,-81.104 -164.96,-80.936C-176.229,-80.347 -178.227,-89.775 -180.258,-99.369C-181.277,-104.186 -182.315,-109.049 -184.628,-111.778C-185.476,-106.647 -185.938,-101.386 -185.938,-96.014C-185.938,-75.419 -179.45,-56.338 -168.411,-40.701C-145.502,-64.641 -85.796,-16.093 -100.112,-0.538C-96.764,-0.185 -93.366,0 -89.924,0C-36.896,0 6.092,-42.987 6.092,-96.014C6.092,-107.87 3.929,-119.217 0,-129.701" style="fill:rgb(245,179,51);fill-rule:nonzero;"/>
    </g>
    <g transform="matrix(4.16667,0,0,4.16667,538.147,757.675)">
        <path d="M0,-8.474L-1.496,-0.997C-1.771,0.373 -0.874,1.719 0.497,1.992C1.868,2.267 3.213,1.371 3.486,0L4.984,-7.476C5.257,-8.848 4.361,-10.192 2.99,-10.466C1.62,-10.741 0.275,-9.845 0,-8.474" style="fill:rgb(245,179,51);fill-rule:nonzero;"/>
    </g>
    <g transform="matrix(4.16667,0,0,4.16667,912.754,713.52)">
        <path d="M0,2.004C0.22,3.385 1.529,4.333 2.91,4.113L10.439,2.91C11.819,2.688 12.767,1.379 12.547,0C12.325,-1.382 11.018,-2.329 9.636,-2.109L2.107,-0.906C0.727,-0.685 -0.221,0.623 0,2.004" style="fill:rgb(245,179,51);fill-rule:nonzero;"/>
    </g>
    <g transform="matrix(4.16667,0,0,4.16667,808.459,553.873)">
        <path d="M0,11.964C1.323,12.418 2.775,11.707 3.228,10.384L4.503,6.66L5.699,3.172C5.956,2.421 5.807,1.649 5.416,1.021C5.117,0.543 4.69,0.14 4.118,-0.056C2.956,-0.454 1.734,0.078 1.138,1.103C1.055,1.245 0.945,1.364 0.89,1.525L-1.581,8.738C-1.593,8.774 -1.584,8.81 -1.595,8.846C-1.974,10.139 -1.287,11.524 0,11.964" style="fill:rgb(245,179,51);fill-rule:nonzero;"/>
    </g>
    <g transform="matrix(4.16667,0,0,4.16667,979.592,592.217)">
        <path d="M0,11.488C1.287,12.034 2.785,11.426 3.331,10.139L6.301,3.116C6.487,2.676 6.496,2.22 6.432,1.777C6.308,0.925 5.797,0.145 4.95,-0.213C4.166,-0.546 3.326,-0.41 2.648,0.008C2.215,0.275 1.833,0.634 1.621,1.137L-1.35,8.158C-1.895,9.446 -1.289,10.944 0,11.488" style="fill:rgb(245,179,51);fill-rule:nonzero;"/>
    </g>
    <g transform="matrix(4.16667,0,0,4.16667,1147.19,721.949)">
        <path d="M0,12.471C1.372,12.201 2.274,10.861 2.006,9.489L0.54,2.006C0.272,0.635 -1.069,-0.268 -2.442,0.002C-3.814,0.27 -4.716,1.611 -4.447,2.983L-2.982,10.465C-2.712,11.838 -1.372,12.739 0,12.471" style="fill:rgb(245,179,51);fill-rule:nonzero;"/>
    </g>
    <g transform="matrix(4.16667,0,0,4.16667,-1002.41,-253.764)">
        <g opacity="0.6">
            <g transform="matrix(1,0,0,1,515.423,370.933)">
                <path d="M0,-51.622C-0.051,-49.715 -0.203,-47.8 -0.461,-45.898C-0.817,-44.038 -1.209,-42.16 -1.7,-40.307C-2.268,-38.491 -2.874,-36.668 -3.563,-34.875C-4.328,-33.124 -5.115,-31.365 -5.99,-29.65C-9.589,-22.848 -14.537,-16.723 -20.39,-11.667C-26.221,-6.589 -32.89,-2.458 -40.045,0.312C-41.855,0.958 -43.639,1.637 -45.478,2.151C-46.398,2.405 -47.331,2.622 -48.253,2.85C-49.18,3.066 -50.088,3.322 -51.034,3.462C-52.916,3.759 -54.788,4.037 -56.664,4.207C-58.561,4.303 -60.452,4.336 -62.329,4.285C-64.39,4.23 -66.015,2.514 -65.96,0.453C-65.925,-0.849 -65.227,-1.977 -64.198,-2.618L-63.903,-2.798C-62.399,-3.719 -60.909,-4.556 -59.426,-5.33C-57.966,-6.184 -56.537,-7.048 -55.099,-7.827C-53.688,-8.681 -52.313,-9.569 -50.924,-10.385C-50.221,-10.772 -49.577,-11.282 -48.905,-11.721L-46.895,-13.028C-41.629,-16.638 -36.707,-20.497 -32.152,-24.753C-27.616,-29.026 -23.379,-33.569 -19.284,-38.421C-18.756,-39.016 -18.286,-39.653 -17.779,-40.27L-16.221,-42.113C-15.229,-43.378 -14.246,-44.665 -13.174,-45.931C-12.198,-47.244 -11.184,-48.562 -10.101,-49.883C-9.114,-51.242 -8.05,-52.6 -6.869,-53.959L-6.651,-54.21C-5.277,-55.79 -2.883,-55.958 -1.303,-54.584C-0.418,-53.815 0.023,-52.709 0,-51.622" style="fill:white;fill-rule:nonzero;"/>
            </g>
        </g>
    </g>
    <g transform="matrix(4.16667,0,0,4.16667,1131.65,638.295)">
        <path d="M0,147.733C-18.903,166.635 -45.02,178.329 -73.867,178.329C-102.714,178.329 -128.832,166.635 -147.733,147.733C-164.986,130.48 -176.201,107.208 -178.033,81.344C-177.723,78.187 -177.673,74.869 -177.673,71.653C-177.673,67.252 -177.084,64.056 -176.125,61.863C-175.447,60.31 -174.626,59.339 -173.749,58.853L-173.744,58.862C-172.977,58.438 -172.096,58.362 -171.201,58.566L-171.189,58.566C-170.257,58.778 -169.286,59.288 -168.352,60.031C-168.001,60.31 -167.681,60.641 -167.377,60.999C-165.064,63.728 -164.026,68.59 -163.007,73.408C-160.976,83.002 -158.978,92.43 -147.709,91.84C-144.462,91.672 -141.329,89.97 -138.864,86.33C-136.959,83.515 -135.442,79.49 -134.626,74.056C-133.855,68.92 -131.871,65.56 -129.592,64.144C-128.796,63.65 -127.973,63.426 -127.195,63.488C-126.411,63.549 -125.612,63.907 -124.862,64.568C-124.363,65.01 -123.897,65.589 -123.46,66.261C-123.839,68.748 -124.097,71.274 -124.097,73.866C-124.097,87.736 -118.473,100.295 -109.384,109.383C-100.295,118.472 -87.735,124.096 -73.867,124.096C-59.999,124.096 -47.44,118.472 -38.351,109.383C-29.262,100.295 -23.638,87.736 -23.638,73.866C-23.638,63.561 -26.752,53.985 -32.077,46.013C-30.524,44.857 -29.306,44.758 -28.365,45.417C-24.47,48.142 -21.901,58.628 -20.237,65.429C-19.611,67.989 -19.099,70.077 -18.61,71.338C-15.979,78.109 -12.459,82.537 -8.639,84.697C-5.803,86.301 -2.822,86.704 0.107,85.938C2.878,85.213 5.528,83.441 7.873,80.656C12.477,75.189 16.063,65.517 17.042,52.015C17.144,50.592 17.033,49.171 16.924,47.769L16.924,47.758C16.781,45.934 16.641,44.139 17.062,43.347C17.117,43.242 17.193,43.176 17.251,43.076C17.935,41.896 18.777,40.984 19.693,40.486C20.359,40.124 21.051,39.963 21.697,40.047C22.321,40.127 22.965,40.46 23.571,41.078C24.562,42.093 25.411,43.794 25.959,46.308C25.972,46.365 25.93,47.075 25.909,48.295C25.849,51.597 25.745,57.307 26.279,62.217C26.871,67.654 28.435,71.762 30.572,74.786C30.325,103.266 18.7,129.033 0,147.733M-64.901,114.478C-83.699,109.118 -97.466,91.827 -97.466,71.309C-97.466,54.543 -88.264,39.953 -74.642,32.252C-74.383,32.247 -74.127,32.233 -73.867,32.233C-73.365,32.233 -72.876,32.29 -72.378,32.308C-61.477,32.694 -51.63,37.223 -44.427,44.426C-43.308,45.545 -42.275,46.746 -41.289,47.986C-40.747,48.668 -40.222,49.365 -39.722,50.081C-39.628,50.215 -39.521,50.339 -39.428,50.475C-38.795,51.405 -38.219,52.374 -37.662,53.356C-34.223,59.414 -32.233,66.402 -32.233,73.866C-32.233,80.333 -33.751,86.43 -36.381,91.89C-38.428,96.139 -41.131,100.01 -44.427,103.306C-45.48,104.359 -46.601,105.34 -47.761,106.276C-52.676,110.24 -58.515,113.085 -64.901,114.478M-147.733,0C-142.344,-5.39 -136.351,-10.169 -129.892,-14.283C-128.057,-15.451 -126.193,-16.576 -124.283,-17.63C-118.704,-20.711 -112.809,-23.282 -106.665,-25.313C-96.347,-28.723 -85.329,-30.596 -73.867,-30.596C-45.02,-30.596 -18.903,-18.903 -0.001,0C0.842,0.843 1.654,1.717 2.469,2.589C11.088,11.816 18.05,22.602 22.892,34.486C22.732,34.456 22.575,34.403 22.415,34.382C20.552,34.142 18.677,34.538 16.963,35.47C16.184,35.895 15.454,36.461 14.761,37.097C13.701,38.072 12.75,39.254 12.002,40.66C10.803,42.922 11.008,45.542 11.216,48.205L11.217,48.205C11.311,49.406 11.405,50.624 11.334,51.611C10.448,63.839 7.394,72.369 3.508,76.983C1.951,78.833 0.303,79.984 -1.326,80.409C-2.795,80.793 -4.328,80.572 -5.82,79.727C-8.54,78.189 -11.16,74.741 -13.282,69.28C-13.638,68.366 -14.109,66.441 -14.685,64.086C-16.552,56.46 -19.43,44.702 -25.097,40.738C-28.158,38.595 -31.63,38.401 -35.539,41.443C-36.44,40.379 -37.365,39.335 -38.351,38.349C-47.44,29.26 -59.998,23.636 -73.867,23.636C-87.737,23.636 -100.295,29.26 -109.384,38.349C-115.22,44.185 -119.6,51.463 -122.007,59.588C-123.493,58.527 -125.099,57.911 -126.748,57.78C-128.75,57.621 -130.758,58.135 -132.613,59.287C-136.206,61.519 -139.25,66.278 -140.291,73.206C-140.976,77.771 -142.151,81.006 -143.588,83.13C-144.942,85.129 -146.49,86.055 -148,86.133C-154.394,86.466 -155.891,79.405 -157.412,72.22C-158.775,65.773 -160.16,59.243 -164.792,55.554C-165.215,55.218 -165.651,54.913 -166.095,54.631C-167.316,53.858 -168.61,53.295 -169.925,52.994L-169.924,52.991C-172.125,52.488 -174.349,52.709 -176.382,53.796C-172.333,33 -162.136,14.402 -147.733,0M10.762,-1.063C9.244,-2.776 7.694,-4.459 6.076,-6.078C-14.383,-26.536 -42.649,-39.191 -73.867,-39.191C-87.201,-39.191 -99.989,-36.865 -111.867,-32.626C-127.799,-26.939 -142.09,-17.797 -153.81,-6.078C-174.269,14.381 -186.925,42.648 -186.925,73.866C-186.925,78.914 -186.56,83.874 -185.918,88.748C-185.776,89.831 -185.633,90.915 -185.46,91.989C-185.439,92.118 -185.413,92.244 -185.392,92.372C-185.222,93.399 -185.041,94.422 -184.844,95.44C-180.481,118.004 -169.432,138.187 -153.81,153.81C-133.352,174.268 -105.086,186.924 -73.867,186.924C-42.649,186.924 -14.383,174.268 6.077,153.81C24.993,134.893 37.215,109.295 38.954,80.868C39.011,79.939 39.051,79.005 39.085,78.07C39.087,78.021 39.087,77.97 39.089,77.92C39.125,76.904 39.157,75.888 39.166,74.865C39.169,74.53 39.191,74.201 39.191,73.866C39.191,45.116 28.439,18.887 10.762,-1.063" style="fill:rgb(245,66,108);fill-rule:nonzero;"/>
    </g>
    <g transform="matrix(4.16667,0,0,4.16667,696.089,620.346)">
        <path d="M0,8.046L6.747,4.498C7.466,4.119 7.889,3.434 8.023,2.689C8.121,2.151 8.087,1.585 7.814,1.066C7.163,-0.172 5.62,-0.651 4.382,0L3.22,0.611L-2.366,3.548C-3.603,4.199 -4.082,5.742 -3.432,6.98C-2.78,8.218 -1.238,8.697 0,8.046" style="fill:rgb(245,66,108);fill-rule:nonzero;"/>
    </g>
    <g transform="matrix(4.16667,0,0,4.16667,869.411,630.255)">
        <path d="M0,2.9C0.295,3.104 0.627,3.259 1.002,3.322L1.75,3.448L8.52,4.59C9.899,4.823 11.216,3.886 11.449,2.508C11.681,1.129 10.745,-0.189 9.366,-0.421L1.849,-1.69C0.47,-1.923 -0.847,-0.985 -1.08,0.394C-1.25,1.396 -0.789,2.356 0,2.9" style="fill:rgb(245,66,108);fill-rule:nonzero;"/>
    </g>
    <g transform="matrix(4.16667,0,0,4.16667,708.927,559.687)">
        <path d="M0,1.218L3.001,2.83L3.381,3.034L6.716,4.825C7.065,5.013 7.438,5.088 7.811,5.103C8.752,5.139 9.683,4.672 10.157,3.789C10.567,3.025 10.501,2.159 10.13,1.439C9.903,0.998 9.588,0.599 9.121,0.349L2.404,-3.259C1.172,-3.921 -0.375,-3.454 -1.038,-2.222C-1.056,-2.189 -1.053,-2.151 -1.069,-2.116C-1.083,-2.09 -1.083,-2.06 -1.095,-2.032C-1.619,-0.836 -1.172,0.59 0,1.218" style="fill:rgb(245,66,108);fill-rule:nonzero;"/>
    </g>
    <g transform="matrix(4.16667,0,0,4.16667,516.652,632.948)">
        <path d="M0,10.069C1.108,10.922 2.711,10.714 3.563,9.605L8.212,3.563C9.065,2.454 8.856,0.852 7.748,-0.001C6.64,-0.853 5.037,-0.645 4.185,0.464L-0.464,6.507C-1.317,7.615 -1.108,9.218 0,10.069" style="fill:rgb(245,66,108);fill-rule:nonzero;"/>
    </g>
    <g transform="matrix(4.16667,0,0,4.16667,502.824,873.374)">
        <path d="M0,0.068L6.375,4.249C7.543,5.017 9.126,4.688 9.893,3.519C10.66,2.35 10.331,0.767 9.162,0.001L2.788,-4.182C1.618,-4.949 0.036,-4.619 -0.73,-3.451C-1.497,-2.282 -1.169,-0.7 0,0.068" style="fill:rgb(245,66,108);fill-rule:nonzero;"/>
    </g>
    <g transform="matrix(4.16667,0,0,4.16667,907.709,540.676)">
        <path d="M0,11.702C1.288,12.247 2.786,11.64 3.33,10.352L4.7,7.113L6.3,3.33C6.846,2.042 6.239,0.546 4.951,0.001C3.664,-0.545 2.166,0.063 1.621,1.35L-0.341,5.989L-1.35,8.373C-1.896,9.66 -1.288,11.158 0,11.702" style="fill:rgb(245,66,108);fill-rule:nonzero;"/>
    </g>
    <g transform="matrix(4.16667,0,0,4.16667,1098.19,798.805)">
        <path d="M0,8.862C1.045,9.79 2.659,9.694 3.587,8.649C4.516,7.604 4.419,5.99 3.373,5.061L-2.328,-0C-3.374,-0.928 -4.987,-0.832 -5.916,0.215C-6.844,1.26 -6.747,2.872 -5.702,3.8L0,8.862Z" style="fill:rgb(245,66,108);fill-rule:nonzero;"/>
    </g>
    <g transform="matrix(4.16667,0,0,4.16667,652.584,723.797)">
        <path d="M0,3.296L7.441,4.959C8.806,5.264 10.17,4.397 10.475,3.033C10.78,1.669 9.914,0.304 8.549,-0L1.108,-1.663C-0.255,-1.968 -1.62,-1.103 -1.925,0.262C-2.23,1.626 -1.364,2.991 0,3.296" style="fill:rgb(245,66,108);fill-rule:nonzero;"/>
    </g>
    <g transform="matrix(4.16667,0,0,4.16667,541.178,424.58)">
        <path d="M0,-36.249C-0.143,-35.757 -0.52,-34.45 -3.057,-33.305C-5.712,-32.11 -6.983,-32.713 -7.402,-32.909C-8.839,-33.591 -10.255,-35.348 -11.388,-37.858C-14.545,-44.856 -11.282,-46.33 -9.33,-47.211C-6.775,-48.365 -5.525,-47.772 -5.113,-47.577C-3.653,-46.884 -2.21,-45.09 -1.051,-42.52C0.073,-40.028 0.447,-37.802 0,-36.249M-66.786,11.044C-66.739,12.209 -67.129,13.38 -67.696,14.448L-78.865,4.853C-77.896,4.13 -76.797,3.568 -75.639,3.439C-73.932,3.269 -72.036,4.054 -69.987,5.814C-67.935,7.577 -66.858,9.336 -66.786,11.044M263.842,11.767L226.857,-37.233C225.484,-39.052 223.444,-40.251 221.186,-40.568C218.934,-40.877 216.638,-40.287 214.817,-38.915L200.446,-28.066L208.868,-42.909C209.994,-44.893 210.284,-47.241 209.678,-49.439C209.071,-51.638 207.616,-53.504 205.633,-54.628L185.833,-65.861C181.704,-68.202 176.458,-66.754 174.116,-62.627L153.835,-26.883C153.25,-25.851 152.745,-25.299 152.464,-25.058C152.309,-25.113 152.069,-25.212 151.743,-25.398C151.551,-25.507 151.405,-25.602 151.292,-25.682C151.387,-26.07 151.625,-26.762 152.215,-27.801L172.495,-63.546C174.838,-67.677 173.39,-72.923 169.261,-75.266L149.462,-86.5C147.476,-87.628 145.127,-87.917 142.933,-87.31C140.735,-86.702 138.868,-85.248 137.743,-83.266L122.282,-56.014L124.658,-87.364C125.017,-92.098 121.471,-96.227 116.736,-96.585L93.936,-98.313C91.659,-98.48 89.412,-97.747 87.684,-96.263C85.954,-94.776 84.886,-92.665 84.713,-90.391L84.089,-82.158L76.693,-95.693C75.296,-98.249 72.702,-99.922 69.798,-100.143L46.995,-101.871C42.273,-102.255 38.134,-98.683 37.774,-93.948L35.22,-60.251C29.876,-71.367 20.912,-79.676 9.862,-83.722C-1.321,-87.816 -13.734,-87.25 -25.086,-82.129C-36.402,-77.023 -45.054,-68.094 -49.449,-56.988C-52.813,-48.487 -53.437,-39.258 -51.35,-30.274C-70.099,-41.119 -92.363,-36.969 -108.006,-18.761L-127.807,4.289C-129.292,6.017 -130.031,8.267 -129.858,10.541C-129.686,12.813 -128.618,14.925 -126.888,16.411L-71.57,63.931C-69.948,65.324 -67.957,66.006 -65.973,66.006C-63.554,66.006 -61.149,64.99 -59.448,63.011L-39.648,39.963C-29.403,28.039 -25.713,13.795 -28.37,0.606C-26.405,1.68 -24.352,2.608 -22.22,3.382C-10.958,7.471 1.474,6.905 12.784,1.799C21.52,-2.142 28.652,-8.395 33.444,-16.19C33.697,-15.764 33.987,-15.36 34.313,-14.98C35.8,-13.25 37.911,-12.182 40.185,-12.01L62.988,-10.281C67.727,-9.906 71.849,-13.47 72.208,-18.202L72.816,-26.223L80.262,-12.843C81.666,-10.318 84.244,-8.669 87.124,-8.451L109.926,-6.724C111.945,-6.568 113.829,-7.122 115.377,-8.166C118.895,-1.786 124.52,3.792 132.136,8.114C153.756,20.378 176.441,14.24 188.586,-7.164L196.969,-21.939C196.768,-19.807 197.371,-17.67 198.667,-15.953L205.031,-7.522L168.155,20.309C166.334,21.684 165.135,23.723 164.819,25.981C164.504,28.239 165.098,30.53 166.471,32.349L180.248,50.6C181.621,52.421 183.66,53.62 185.918,53.936C188.176,54.246 190.466,53.655 192.286,52.284L229.164,24.45L235.65,33.044C237.025,34.865 239.064,36.064 241.322,36.38C243.584,36.691 245.871,36.101 247.692,34.727L262.161,23.805C265.949,20.945 266.703,15.554 263.842,11.767" style="fill:rgb(245,66,108);fill-rule:nonzero;"/>
    </g>
    <g transform="matrix(4.16667,0,0,4.16667,966.695,1476.14)">
        <path d="M0,49.803L-6.918,50.635L-6.918,50.629L0,49.803ZM109.49,3.556C109.53,4.685 109.152,5.819 108.601,6.855L97.646,-2.665C98.596,-3.356 99.665,-3.887 100.788,-4.005C102.457,-4.188 104.335,-3.379 106.355,-1.623C108.375,0.131 109.428,1.874 109.49,3.556M-78.275,58.975C-80.292,66.186 -83.893,65.174 -85.622,64.691C-87.519,64.159 -91.05,63.171 -89.037,55.967C-86.992,48.663 -83.591,49.616 -81.563,50.182C-79.701,50.702 -76.234,51.672 -78.275,58.975M132.747,-31.992C112.908,-49.228 86.569,-46.91 68.693,-26.343L68.692,-26.343L48.877,-3.542C45.763,0.042 46.143,5.472 49.727,8.584L86.279,40.352C83.987,39.284 81.248,39.234 78.813,40.454L66.897,46.401L46.042,4.615C45.025,2.574 43.239,1.024 41.076,0.301C38.917,-0.422 36.556,-0.256 34.514,0.763L14.173,10.914C12.132,11.932 10.581,13.718 9.858,15.881C9.616,16.605 9.474,17.351 9.429,18.099C4.079,16.459 -1.983,16.011 -8.518,16.798L-42.066,20.845C-45.5,21.259 -48.215,23.644 -49.217,26.731C-54.838,20.599 -62.331,15.912 -71.278,13.41C-80.904,10.719 -90.394,11.032 -98.846,13.848L-114.047,-0.728C-116.789,-3.357 -120.873,-3.84 -124.105,-2.074C-122.469,-5.404 -123.151,-9.454 -125.875,-12.064L-143.763,-29.216C-146.488,-31.828 -150.562,-32.341 -153.819,-30.563C-152.193,-33.873 -152.85,-37.929 -155.588,-40.556L-173.255,-57.494C-175.143,-59.304 -177.75,-60.15 -180.349,-59.807C-182.942,-59.46 -185.236,-57.948 -186.58,-55.703L-224.781,8.11C-226.84,11.549 -226.247,15.956 -223.354,18.729L-202.953,38.29C-200.036,41.084 -195.567,41.47 -192.217,39.225C-194.32,42.666 -193.75,47.115 -190.832,49.912L-170.43,69.473C-167.538,72.247 -163.112,72.656 -159.759,70.451L-129.023,50.249C-132.812,73.232 -119.067,95.197 -95.963,101.659C-84.104,104.98 -71.83,103.652 -61.399,97.922C-53.839,93.773 -47.738,87.553 -43.602,79.918L-40.893,102.386C-40.621,104.65 -39.459,106.712 -37.667,108.119C-36.144,109.315 -34.274,109.953 -32.359,109.953C-32.017,109.953 -31.674,109.933 -31.33,109.892L-8.76,107.17C-6.496,106.897 -4.434,105.737 -3.026,103.944C-2.779,103.628 -2.556,103.299 -2.357,102.956C-0.506,104.876 2.153,105.856 4.863,105.527L29.671,102.536C32.709,102.17 35.324,100.216 36.536,97.406C37.748,94.595 37.373,91.351 35.553,88.89L21.894,70.42C25.068,67.495 27.52,64.02 29.148,60.169L42.696,87.314C43.714,89.355 45.501,90.907 47.663,91.629C49.822,92.353 52.183,92.187 54.226,91.166L94.173,71.229C96.214,70.211 97.765,68.424 98.488,66.262C99.21,64.1 99.044,61.74 98.026,59.699L90.342,44.306C90.197,44.015 90.037,43.734 89.864,43.466L104.45,56.143C106.171,57.639 108.425,58.395 110.688,58.229C112.964,58.071 115.081,57.015 116.576,55.293L136.392,32.491C145.237,22.314 149.469,10.599 148.629,-1.388C147.821,-12.925 142.18,-23.794 132.747,-31.992" style="fill:rgb(245,66,108);fill-rule:nonzero;"/>
    </g>
    <g transform="matrix(4.16667,0,0,4.16667,543.174,195.563)">
        <path d="M0,29.494C-2.361,30.559 -4.617,31.033 -6.731,30.975C-12.266,30.826 -16.819,27.029 -19.702,20.642C-23.769,11.629 -21.889,3.775 -13.345,-0.081C-11.041,-1.121 -8.822,-1.587 -6.731,-1.531C-1.242,-1.383 3.36,2.38 6.305,8.907C10.288,17.732 8.357,25.723 0,29.494M-6.731,-22.854C-11.821,-22.747 -17.013,-21.592 -22.029,-19.328C-30.292,-15.601 -36.668,-9.475 -40.471,-2.089C-45.356,7.402 -45.993,18.972 -40.919,30.217C-40.773,30.54 -40.624,30.861 -40.471,31.178C-33.719,45.196 -20.553,52.646 -6.731,52.438C-1.555,52.36 3.713,51.209 8.771,48.928C27.547,40.455 36.454,19.372 27.43,-0.626C20.793,-15.334 7.422,-23.152 -6.731,-22.854" style="fill:white;fill-rule:nonzero;"/>
    </g>
    <g transform="matrix(4.16667,0,0,4.16667,278.756,452.648)">
        <path d="M0,15.899L-3.556,20.039L-11.726,13.021L-28.246,-1.17L-24.689,-5.311C-20.889,-9.734 -16.396,-12.064 -11.726,-11.912C-8.312,-11.801 -4.803,-10.362 -1.404,-7.442C6.644,-0.528 6.578,8.242 0,15.899M13.699,-25.022C6.008,-31.628 -2.881,-34.775 -11.726,-34.283C-21.215,-33.753 -30.653,-29.034 -38.504,-19.896L-58.305,3.153L-11.726,43.167L-2.988,50.674L16.813,27.627C19.367,24.654 21.417,21.575 22.989,18.443C28.421,7.634 28.133,-3.787 22.989,-13.535C20.771,-17.736 17.652,-21.626 13.699,-25.022" style="fill:white;fill-rule:nonzero;"/>
    </g>
    <g transform="matrix(4.16667,0,0,4.16667,1457.83,613.844)">
        <path d="M0,-77.477L-14.469,-66.556L-2.926,-51.264L-32.635,-28.84L-46.664,-18.252L-32.888,0L-32.635,-0.192L10.85,-33.014L22.516,-17.557L36.985,-28.478L0,-77.477Z" style="fill:white;fill-rule:nonzero;"/>
    </g>
    <g transform="matrix(4.16667,0,0,4.16667,918.125,191.112)">
        <path d="M0,3.472L-21.318,-35.538L-44.121,-37.266L-49.632,35.451L-26.83,37.18L-24.059,0.616L-2.695,39.01L20.108,40.738L25.62,-31.98L2.817,-33.709L0,3.472Z" style="fill:white;fill-rule:nonzero;"/>
    </g>
    <g transform="matrix(4.16667,0,0,4.16667,1295.8,182.992)">
        <path d="M0,46.575L6.251,35.557L20.281,10.829L6.251,2.869L0.481,-0.404L-19.799,35.341C-22.9,40.806 -27.605,43.466 -33.608,40.059C-39.611,36.654 -39.474,31.403 -36.373,25.938L-16.092,-9.808L-35.891,-21.041L-56.172,14.703C-66.795,33.428 -60.588,49.621 -44.731,58.618C-28.874,67.616 -10.625,65.299 0,46.575" style="fill:white;fill-rule:nonzero;"/>
    </g>
    <g transform="matrix(4.16667,0,0,4.16667,675.039,1700.33)">
        <path d="M0,7.488C-2.151,15.176 -7.037,19.833 -13.65,19.797C-15.01,19.789 -16.444,19.583 -17.94,19.164C-26.915,16.654 -29.91,9.117 -27.317,-0.153C-25.125,-7.991 -20.329,-12.624 -13.65,-12.56C-12.263,-12.547 -10.794,-12.332 -9.25,-11.9C-0.474,-9.445 2.648,-1.979 0,7.488M-3.596,-32.116C-6.958,-33.058 -10.334,-33.54 -13.65,-33.596C-24.475,-33.776 -34.672,-29.377 -41.716,-21.26C-45.242,-17.198 -47.978,-12.205 -49.605,-6.388C-53.339,6.965 -49.847,19.672 -41.716,28.586C-37.056,33.694 -30.872,37.557 -23.65,39.578C-20.309,40.513 -16.95,40.989 -13.65,41.036C2.521,41.264 17.309,31.141 22.189,13.696C28.064,-7.31 16.326,-26.544 -3.596,-32.116" style="fill:white;fill-rule:nonzero;"/>
    </g>
    <g transform="matrix(4.16667,0,0,4.16667,540.32,1432.66)">
        <path d="M0,32.853L-9.383,23.856L-17.667,15.915L-54.005,44.345L-29.494,4.576L-47.381,-12.575L-86.084,13.587L-59.208,-23.914L-76.874,-40.852L-115.075,22.961L-94.673,42.522L-60.123,18.619L-82.552,54.145L-62.15,73.705L-9.383,39.021L0,32.853Z" style="fill:white;fill-rule:nonzero;"/>
    </g>
    <g transform="matrix(4.16667,0,0,4.16667,1438.6,1462.91)">
        <path d="M0,18.276L-3.56,22.373L-25.455,3.345L-27.985,1.145L-25.455,-1.767L-24.425,-2.951C-17.842,-10.526 -9.224,-11.855 -1.263,-4.936C6.698,1.982 6.583,10.701 0,18.276M13.85,-22.328C2.122,-32.521 -12.491,-34.555 -25.455,-27.742C-29.919,-25.394 -34.188,-22.002 -38.076,-17.529L-40.407,-14.846L-57.892,5.273L-40.407,20.467L-25.455,33.463L-3.168,52.831L16.647,30.03C31.828,12.561 29.463,-8.758 13.85,-22.328" style="fill:white;fill-rule:nonzero;"/>
    </g>
    <g transform="matrix(4.16667,0,0,4.16667,942.651,1758.72)">
        <path d="M0,-11.131L-2.284,-10.857L-8.947,-10.053L-10.417,-22.253L-2.284,-23.233L-1.47,-23.331C2.799,-23.847 5.33,-21.676 5.771,-18.017C6.286,-13.746 4.271,-11.648 0,-11.131M15.433,0.519C25.297,-4.073 29.615,-12.743 28.475,-22.197C26.881,-35.415 16.379,-44.669 -1.718,-42.486L-2.284,-42.418L-35.267,-38.441L-26.588,33.538L-4.018,30.817L-7.132,4.993L-7.03,4.98L-2.284,11.883L9.605,29.174L29.096,26.824L34.412,26.183L29.096,18.995L15.433,0.519Z" style="fill:white;fill-rule:nonzero;"/>
    </g>
    <g transform="matrix(4.16667,0,0,4.16667,1311.08,1658.58)">
        <path d="M0,4.359L-9.802,9.251L-19.607,14.145L-44.3,-35.331L-59.326,-27.832L-64.641,-25.18L-59.326,-14.532L-32.265,39.69L-9.802,28.478L5.151,21.016L7.683,19.752L5.151,14.679L0,4.359Z" style="fill:white;fill-rule:nonzero;"/>
    </g>
</svg>
